<mxfile host="app.diagrams.net" modified="2022-09-05T13:42:57.678Z" agent="5.0 (Macintosh; Intel Mac OS X 10_15_7) AppleWebKit/537.36 (KHTML, like Gecko) Chrome/104.0.0.0 Safari/537.36" etag="fRLYPZbR5t9zXvwkid49" version="20.2.8" type="github">
  <diagram id="NdNx2JGu053G-j5TP742" name="Page-1">
    <mxGraphModel dx="1868" dy="659" grid="1" gridSize="10" guides="1" tooltips="1" connect="1" arrows="1" fold="1" page="1" pageScale="1" pageWidth="850" pageHeight="1100" math="0" shadow="0">
      <root>
        <mxCell id="0" />
        <mxCell id="1" parent="0" />
        <mxCell id="IfoGUkVT0MuTuoycNDT3-1" value="&lt;font style=&quot;font-size: 20px;&quot;&gt;Validator&lt;/font&gt;" style="rounded=1;whiteSpace=wrap;html=1;fillColor=#f5f5f5;fontColor=#333333;strokeColor=#666666;" vertex="1" parent="1">
          <mxGeometry x="-80" y="280" width="160" height="80" as="geometry" />
        </mxCell>
        <mxCell id="IfoGUkVT0MuTuoycNDT3-4" value="&lt;font style=&quot;font-size: 18px;&quot;&gt;Execution Chain&lt;/font&gt;" style="rounded=1;whiteSpace=wrap;html=1;fontSize=20;fillColor=#d5e8d4;strokeColor=#82b366;" vertex="1" parent="1">
          <mxGeometry x="240" y="400" width="210" height="80" as="geometry" />
        </mxCell>
        <mxCell id="IfoGUkVT0MuTuoycNDT3-5" value="&lt;font style=&quot;font-size: 18px;&quot;&gt;Beacon chain&lt;/font&gt;" style="rounded=1;whiteSpace=wrap;html=1;fontSize=20;fillColor=#dae8fc;strokeColor=#6c8ebf;" vertex="1" parent="1">
          <mxGeometry x="240" y="160" width="210" height="80" as="geometry" />
        </mxCell>
        <mxCell id="IfoGUkVT0MuTuoycNDT3-6" value="" style="endArrow=classic;html=1;rounded=0;fontSize=18;strokeWidth=1.5;exitX=0;exitY=0.5;exitDx=0;exitDy=0;entryX=1;entryY=0.5;entryDx=0;entryDy=0;" edge="1" parent="1" source="IfoGUkVT0MuTuoycNDT3-5" target="IfoGUkVT0MuTuoycNDT3-1">
          <mxGeometry width="50" height="50" relative="1" as="geometry">
            <mxPoint x="400" y="360" as="sourcePoint" />
            <mxPoint x="450" y="310" as="targetPoint" />
          </mxGeometry>
        </mxCell>
        <mxCell id="IfoGUkVT0MuTuoycNDT3-7" value="" style="endArrow=classic;html=1;rounded=0;fontSize=18;strokeWidth=1.5;exitX=0;exitY=0.5;exitDx=0;exitDy=0;entryX=1;entryY=0.5;entryDx=0;entryDy=0;" edge="1" parent="1" source="IfoGUkVT0MuTuoycNDT3-4" target="IfoGUkVT0MuTuoycNDT3-1">
          <mxGeometry width="50" height="50" relative="1" as="geometry">
            <mxPoint x="250" y="210" as="sourcePoint" />
            <mxPoint x="170" y="330" as="targetPoint" />
          </mxGeometry>
        </mxCell>
        <mxCell id="IfoGUkVT0MuTuoycNDT3-8" value="&lt;font style=&quot;font-size: 16px;&quot;&gt;process block&lt;/font&gt;" style="rounded=0;whiteSpace=wrap;html=1;fontSize=18;" vertex="1" parent="1">
          <mxGeometry x="520" y="130" width="140" height="60" as="geometry" />
        </mxCell>
        <mxCell id="IfoGUkVT0MuTuoycNDT3-10" value="&lt;font style=&quot;font-size: 16px;&quot;&gt;attestation&lt;/font&gt;" style="rounded=0;whiteSpace=wrap;html=1;fontSize=18;" vertex="1" parent="1">
          <mxGeometry x="520" y="200" width="140" height="60" as="geometry" />
        </mxCell>
        <mxCell id="IfoGUkVT0MuTuoycNDT3-11" value="" style="endArrow=classic;html=1;rounded=0;fontSize=18;strokeWidth=1.5;exitX=0;exitY=0.5;exitDx=0;exitDy=0;entryX=1;entryY=0.5;entryDx=0;entryDy=0;" edge="1" parent="1" source="IfoGUkVT0MuTuoycNDT3-8" target="IfoGUkVT0MuTuoycNDT3-5">
          <mxGeometry width="50" height="50" relative="1" as="geometry">
            <mxPoint x="250" y="210" as="sourcePoint" />
            <mxPoint x="90" y="330" as="targetPoint" />
          </mxGeometry>
        </mxCell>
        <mxCell id="IfoGUkVT0MuTuoycNDT3-12" value="" style="endArrow=classic;html=1;rounded=0;fontSize=18;strokeWidth=1.5;exitX=0;exitY=0.5;exitDx=0;exitDy=0;entryX=1;entryY=0.5;entryDx=0;entryDy=0;" edge="1" parent="1" source="IfoGUkVT0MuTuoycNDT3-10" target="IfoGUkVT0MuTuoycNDT3-5">
          <mxGeometry width="50" height="50" relative="1" as="geometry">
            <mxPoint x="520" y="160" as="sourcePoint" />
            <mxPoint x="460" y="210" as="targetPoint" />
          </mxGeometry>
        </mxCell>
        <mxCell id="IfoGUkVT0MuTuoycNDT3-13" value="&lt;span style=&quot;font-size: 16px;&quot;&gt;transaction fee&lt;/span&gt;" style="rounded=0;whiteSpace=wrap;html=1;fontSize=18;" vertex="1" parent="1">
          <mxGeometry x="520" y="410" width="140" height="60" as="geometry" />
        </mxCell>
        <mxCell id="IfoGUkVT0MuTuoycNDT3-14" value="" style="endArrow=classic;html=1;rounded=0;fontSize=18;strokeWidth=1.5;exitX=0;exitY=0.5;exitDx=0;exitDy=0;entryX=1;entryY=0.5;entryDx=0;entryDy=0;" edge="1" parent="1" source="IfoGUkVT0MuTuoycNDT3-13" target="IfoGUkVT0MuTuoycNDT3-4">
          <mxGeometry width="50" height="50" relative="1" as="geometry">
            <mxPoint x="530" y="240" as="sourcePoint" />
            <mxPoint x="460" y="210" as="targetPoint" />
          </mxGeometry>
        </mxCell>
      </root>
    </mxGraphModel>
  </diagram>
</mxfile>
